<?xml version="1.0" standalone="no"?>
<!DOCTYPE svg PUBLIC "-//W3C//DTD SVG 20010904//EN"
 "http://www.w3.org/TR/2001/REC-SVG-20010904/DTD/svg10.dtd">
<svg version="1.0" xmlns="http://www.w3.org/2000/svg"
 width="700.000000pt" height="700.000000pt" viewBox="0 0 700.000000 700.000000"
 preserveAspectRatio="xMidYMid meet">
<metadata>
Created by potrace 1.14, written by Peter Selinger 2001-2017
</metadata>
<g transform="translate(0.000000,700.000000) scale(0.100000,-0.100000)"
fill="#000000" stroke="none">
<path d="M141 6080 c-55 -25 -104 -77 -125 -131 -15 -41 -16 -216 -14 -2184 3
-2002 4 -2142 20 -2171 24 -44 70 -88 115 -110 36 -18 89 -18 1302 -19 l1264
-1 33 -77 c129 -301 427 -493 748 -482 114 4 157 12 254 47 219 79 376 240
479 488 l10 25 1299 0 1299 0 45 23 c53 28 85 62 111 117 18 39 18 107 19
2165 0 1359 -3 2137 -10 2159 -15 54 -59 110 -109 139 l-46 27 -3325 2 c-3256
2 -3327 1 -3369 -17z m3124 -2300 l0 -1855 -1402 0 -1402 0 1 1855 0 1856
1401 -1 1402 0 0 -1855z m3270 0 l0 -1855 -1400 0 -1400 0 -3 1856 -2 1855
1402 -1 1403 0 0 -1855z m-2870 -2346 c-98 -82 -262 -90 -374 -20 -80 51 -79
51 176 51 l234 0 -36 -31z"/>
<path d="M1261 5118 c-101 -28 -165 -114 -164 -223 0 -108 65 -192 173 -222 8
-3 180 -5 381 -5 360 -1 367 -1 413 21 85 42 136 131 129 226 -5 62 -24 103
-70 148 -63 63 -82 66 -476 65 -193 0 -367 -5 -386 -10z"/>
<path d="M1263 4180 c-99 -23 -166 -114 -166 -226 -1 -94 52 -172 143 -211 54
-22 1398 -22 1452 1 151 64 192 257 79 373 -72 75 -50 73 -805 72 -369 -1
-686 -4 -703 -9z"/>
<path d="M1234 3231 c-113 -52 -168 -181 -124 -297 25 -65 88 -122 154 -138
51 -13 1374 -8 1414 5 54 17 98 53 129 106 22 38 27 58 27 112 -1 96 -42 163
-126 205 l-51 25 -691 1 c-653 0 -693 -1 -732 -19z"/>
<path d="M4325 5123 c-64 -14 -130 -66 -163 -128 -24 -46 -21 -150 5 -201 27
-51 80 -98 130 -115 29 -10 190 -13 724 -13 683 0 685 0 730 22 61 30 98 71
119 132 31 91 9 179 -61 248 -64 62 -55 62 -794 60 -368 0 -679 -3 -690 -5z"/>
<path d="M4299 4176 c-166 -59 -209 -280 -77 -391 69 -59 43 -57 775 -57 370
0 690 3 711 7 52 9 112 53 145 107 36 58 42 151 13 209 -27 58 -84 108 -140
124 -68 21 -1370 22 -1427 1z"/>
<path d="M4310 3241 c-78 -24 -140 -88 -161 -165 -21 -79 10 -178 72 -230 70
-59 43 -57 788 -57 492 0 694 4 720 12 155 51 208 257 95 373 -74 76 -19 71
-794 73 -382 1 -706 -2 -720 -6z"/>
</g>
</svg>
